<?xml version="1.0" encoding="UTF-8"?>
<svg xmlns:xlink="http://www.w3.org/1999/xlink" xmlns="http://www.w3.org/2000/svg" width="950" height="400" viewBox="0 0 950 400" style="font-weight:bold;font-family:arial,'lucida console',sans-serif,黑体;font-size:14px;">
    <defs>
        <linearGradient id="line" x1="50%" x2="50%" y1="0%" y2="100%">
            <stop offset="20%" stop-color="#88AAEE"/>
            <stop offset="100%" stop-color="#224499"/>
        </linearGradient>
        <marker id="arrow" markerWidth="10" markerHeight="8" refX="4" refY="4" orient="auto">
            <path d="M0,0 8,4 0,8Z" fill="white" stroke="black"/>
        </marker>
        <g id="bg">
            <rect x="0" y="0" width="10" height="10" rx="5" ry="5"
                stroke="#223388" stroke-width="2" fill="url(#line)"/>
        </g>
    </defs>
    <rect x="0" y="0" width="950" height="700" fill="white"/>
    <g transform="translate(400,10)">
        <rect x="0" y="0" width="130" height="25" rx="5" ry="5"
            stroke="#223388" stroke-width="2" fill="url(#line)"/>
        <text x="10" y="17" fill="white">Ext.dd.DragDrop</text>
        <line x1="65" y1="25" x2="65" y2="45" stroke="black"/>
        <line x1="-20" y1="45" x2="140" y2="45" stroke="black"/>
        <line x1="-20" y1="45" x2="-20" y2="65" stroke="black" marker-end="url(#arrow)"/>
        <line x1="140" y1="45" x2="140" y2="65" stroke="black" marker-end="url(#arrow)"/>
    </g>
    <g transform="translate(310,80)">
        <g transform="translate(0,0)">
            <rect x="0" y="0" width="150" height="25" rx="5" ry="5"
                stroke="#223388" stroke-width="2" fill="url(#line)"/>
            <text x="40" y="17" fill="white">Ext.dd.DD</text>
            <line x1="70" y1="25" x2="70" y2="45" stroke="black" marker-end="url(#arrow)"/>

        </g>
        <g transform="translate(0,50)">
            <rect x="0" y="0" width="150" height="25" rx="5" ry="5"
                stroke="#223388" stroke-width="2" fill="url(#line)"/>
            <text x="20" y="17" fill="white">Ext.dd.DDProxy</text>
            <line x1="70" y1="25" x2="70" y2="45" stroke="black" marker-end="url(#arrow)"/>
        </g>
        <g transform="translate(0,100)">
            <rect x="0" y="0" width="150" height="25" rx="5" ry="5"
                stroke="#223388" stroke-width="2" fill="url(#line)"/>
            <text x="10" y="17" fill="white">Ext.dd.DragSource</text>
            <line x1="70" y1="25" x2="70" y2="45" stroke="black" marker-end="url(#arrow)"/>
        </g>
        <g transform="translate(0,150)">
            <rect x="0" y="0" width="150" height="25" rx="5" ry="5"
                stroke="#223388" stroke-width="2" fill="url(#line)"/>
            <text x="20" y="17" fill="white">Ext.dd.DragZone</text>
        </g>
    </g>
    <g transform="translate(470,80)">
        <g transform="translate(0,0)">
            <rect x="0" y="0" width="150" height="25" rx="5" ry="5"
                stroke="#223388" stroke-width="2" fill="url(#line)"/>
            <text x="20" y="17" fill="white">Ext.dd.DDTarget</text>
            <line x1="70" y1="25" x2="70" y2="45" stroke="black" marker-end="url(#arrow)"/>

        </g>
        <g transform="translate(0,50)">
            <rect x="0" y="0" width="150" height="25" rx="5" ry="5"
                stroke="#223388" stroke-width="2" fill="url(#line)"/>
            <text x="20" y="17" fill="white">Ext.dd.DropZone</text>
        </g>
    </g>
</svg>
