<?xml version="1.0" encoding="UTF-8"?>
<svg xmlns:xlink="http://www.w3.org/1999/xlink" xmlns="http://www.w3.org/2000/svg" width="400" height="500" viewBox="0 0 400 500" style="font-weight:bold;font-family:arial,'lucida console',sans-serif,黑体;font-size:14px;">
    <defs>
        <linearGradient id="line" x1="50%" x2="50%" y1="0%" y2="100%">
            <stop offset="20%" stop-color="#88AAEE"/>
            <stop offset="100%" stop-color="#224499"/>
        </linearGradient>
        <marker id="arrow" markerWidth="10" markerHeight="8" refX="4" refY="4" orient="auto">
            <path d="M0,0 8,4 0,8Z" fill="white" stroke="black"/>
        </marker>
        <g id="bg">
            <rect x="0" y="0" width="10" height="10" rx="5" ry="5"
                stroke="#223388" stroke-width="2" fill="url(#line)"/>
        </g>
    </defs>
    <rect x="0" y="0" width="400" height="500" fill="white"/>
    <g transform="translate(10,10)">
        <g transform="translate(20,0)">
            <rect x="0" y="0" width="120" height="25" rx="5" ry="5"
                stroke="#223388" stroke-width="2" fill="url(#line)"/>
            <text x="10" y="17" fill="white">Ext.Container</text>
            <line x1="5" y1="25" x2="5" y2="75" stroke="black"/>
            <line x1="5" y1="45" x2="15" y2="45" stroke="black" marker-end="url(#arrow)"/>
            <line x1="5" y1="75" x2="15" y2="75" stroke="black" marker-end="url(#arrow)"/>
        </g>
        <g transform="translate(40,30)">
            <rect x="0" y="0" width="110" height="25" rx="5" ry="5"
                stroke="#223388" stroke-width="2" fill="url(#line)"/>
            <text x="10" y="17" fill="white">Ext.Viewport</text>
        </g>
        <g transform="translate(40,60)">
            <g transform="translate(0,0)">
                <rect x="0" y="0" width="90" height="25" rx="5" ry="5"
                    stroke="#223388" stroke-width="2" fill="url(#line)"/>
                <text x="10" y="17" fill="white">Ext.Panel</text>
                <line x1="5" y1="25" x2="5" y2="225" stroke="black"/>
                <line x1="5" y1="45" x2="15" y2="45" stroke="black" marker-end="url(#arrow)"/>
                <line x1="5" y1="75" x2="15" y2="75" stroke="black" marker-end="url(#arrow)"/>
                <line x1="5" y1="105" x2="15" y2="105" stroke="black" marker-end="url(#arrow)"/>
                <line x1="5" y1="135" x2="15" y2="135" stroke="black" marker-end="url(#arrow)"/>
                <line x1="5" y1="165" x2="15" y2="165" stroke="black" marker-end="url(#arrow)"/>
                <line x1="5" y1="195" x2="15" y2="195" stroke="black" marker-end="url(#arrow)"/>
                <line x1="5" y1="225" x2="15" y2="225" stroke="black" marker-end="url(#arrow)"/>
            </g>
            <g transform="translate(20,30)">
                <rect x="0" y="0" width="110" height="25" rx="5" ry="5"
                    stroke="#223388" stroke-width="2" fill="url(#line)"/>
                <text x="10" y="17" fill="white">Ext.TabPanel</text>
            </g>
            <g transform="translate(20,60)">
                <rect x="0" y="0" width="70" height="25" rx="5" ry="5"
                    stroke="#223388" stroke-width="2" fill="url(#line)"/>
                <text x="10" y="17" fill="white">Ext.Tip</text>
            </g>
            <g transform="translate(20,90)">
                <rect x="0" y="0" width="100" height="25" rx="5" ry="5"
                    stroke="#223388" stroke-width="2" fill="url(#line)"/>
                <text x="10" y="17" fill="white">Ext.Window</text>
            </g>
            <g transform="translate(20,120)">
                <rect x="0" y="0" width="140" height="25" rx="5" ry="5"
                    stroke="#223388" stroke-width="2" fill="url(#line)"/>
                <text x="10" y="17" fill="white">Ext.form.FieldSet</text>
            </g>
            <g transform="translate(20,150)">
                <rect x="0" y="0" width="155" height="25" rx="5" ry="5"
                    stroke="#223388" stroke-width="2" fill="url(#line)"/>
                <text x="10" y="17" fill="white">Ext.form.FormPanel</text>
            </g>
            <g transform="translate(20,180)">
                <rect x="0" y="0" width="150" height="25" rx="5" ry="5"
                    stroke="#223388" stroke-width="2" fill="url(#line)"/>
                <text x="10" y="17" fill="white">Ext.tree.TreePanel</text>
            </g>
            <g transform="translate(20,210)">
                <g>
                    <rect x="0" y="0" width="150" height="25" rx="5" ry="5"
                        stroke="#223388" stroke-width="2" fill="url(#line)"/>
                    <text x="10" y="17" fill="white">Ext.grid.GridPanel</text>
                    <line x1="5" y1="25" x2="5" y2="75" stroke="black"/>
                    <line x1="5" y1="45" x2="15" y2="45" stroke="black" marker-end="url(#arrow)"/>
                    <line x1="5" y1="75" x2="15" y2="75" stroke="black" marker-end="url(#arrow)"/>
                </g>
                <g transform="translate(20,30)">
                    <rect x="0" y="0" width="185" height="25" rx="5" ry="5"
                        stroke="#223388" stroke-width="2" fill="url(#line)"/>
                    <text x="10" y="17" fill="white">Ext.grid.EditorGridPanel</text>
                </g>
                <g transform="translate(20,60)">
                    <rect x="0" y="0" width="170" height="25" rx="5" ry="5"
                        stroke="#223388" stroke-width="2" fill="url(#line)"/>
                    <text x="10" y="17" fill="white">Ext.grid.PropertyGrid</text>
                </g>
            </g>
        </g>
    </g>
</svg>
